<svg xmlns="http://www.w3.org/2000/svg" xmlns:xlink="http://www.w3.org/1999/xlink" width="80" zoomAndPan="magnify" viewBox="0 0 60 60" height="80" preserveAspectRatio="xMidYMid meet" version="1.0"><defs><clipPath id="e470a93c68"><path d="M 0 6.75 L 48 6.75 L 48 53.25 L 0 53.25 Z M 0 6.75 " clip-rule="nonzero"/></clipPath></defs><path fill="#000000" d="M 46.605469 15.289062 L 1.015625 15.289062 C 0.851562 15.289062 0.714844 15.230469 0.597656 15.117188 C 0.480469 15 0.421875 14.859375 0.421875 14.699219 C 0.421875 14.535156 0.480469 14.394531 0.597656 14.277344 C 0.714844 14.164062 0.851562 14.105469 1.015625 14.105469 L 46.605469 14.105469 C 46.769531 14.105469 46.910156 14.164062 47.023438 14.277344 C 47.140625 14.394531 47.199219 14.535156 47.199219 14.699219 C 47.199219 14.859375 47.140625 15 47.023438 15.117188 C 46.910156 15.230469 46.769531 15.289062 46.605469 15.289062 Z M 46.605469 15.289062 " fill-opacity="1" fill-rule="nonzero"/><path fill="#000000" d="M 3.882812 12.425781 C 3.617188 12.425781 3.433594 12.304688 3.335938 12.0625 C 3.234375 11.816406 3.277344 11.601562 3.460938 11.414062 L 4.949219 9.929688 C 5.066406 9.816406 5.207031 9.757812 5.367188 9.761719 C 5.53125 9.761719 5.667969 9.820312 5.78125 9.933594 C 5.898438 10.046875 5.957031 10.1875 5.957031 10.347656 C 5.957031 10.511719 5.902344 10.652344 5.789062 10.765625 L 4.300781 12.253906 C 4.183594 12.371094 4.046875 12.429688 3.882812 12.425781 Z M 3.882812 12.425781 " fill-opacity="1" fill-rule="nonzero"/><path fill="#000000" d="M 5.367188 12.425781 C 5.207031 12.429688 5.066406 12.371094 4.949219 12.253906 L 3.460938 10.765625 C 3.347656 10.652344 3.289062 10.511719 3.289062 10.347656 C 3.289062 10.183594 3.347656 10.042969 3.460938 9.929688 C 3.578125 9.8125 3.71875 9.753906 3.882812 9.753906 C 4.046875 9.753906 4.183594 9.8125 4.300781 9.929688 L 5.789062 11.414062 C 5.976562 11.601562 6.019531 11.816406 5.917969 12.0625 C 5.816406 12.304688 5.632812 12.425781 5.367188 12.425781 Z M 5.367188 12.425781 " fill-opacity="1" fill-rule="nonzero"/><path fill="#000000" d="M 45.101562 43.691406 C 45.007812 43.691406 44.917969 43.667969 44.835938 43.628906 L 38.015625 40.242188 C 37.867188 40.171875 37.769531 40.058594 37.714844 39.902344 C 37.664062 39.746094 37.675781 39.597656 37.746094 39.449219 L 49.949219 14.855469 C 50.019531 14.707031 50.132812 14.609375 50.289062 14.554688 C 50.445312 14.503906 50.59375 14.515625 50.742188 14.585938 L 57.5625 17.972656 C 57.710938 18.042969 57.808594 18.15625 57.863281 18.3125 C 57.914062 18.46875 57.90625 18.617188 57.832031 18.765625 L 45.632812 43.359375 C 45.523438 43.582031 45.34375 43.691406 45.101562 43.691406 Z M 39.074219 39.445312 L 44.832031 42.300781 L 56.507812 18.769531 L 50.746094 15.910156 Z M 39.074219 39.445312 " fill-opacity="1" fill-rule="nonzero"/><path fill="#000000" d="M 38.742188 48.535156 C 38.585938 48.535156 38.449219 48.480469 38.335938 48.371094 C 38.21875 48.265625 38.160156 48.132812 38.148438 47.976562 L 37.6875 39.746094 C 37.679688 39.640625 37.703125 39.539062 37.75 39.445312 C 37.796875 39.351562 37.863281 39.277344 37.953125 39.21875 C 38.039062 39.160156 38.136719 39.128906 38.242188 39.121094 C 38.347656 39.113281 38.445312 39.136719 38.542969 39.183594 L 45.363281 42.566406 C 45.457031 42.613281 45.53125 42.675781 45.589844 42.761719 C 45.648438 42.84375 45.679688 42.9375 45.691406 43.039062 C 45.699219 43.140625 45.683594 43.242188 45.644531 43.335938 C 45.601562 43.429688 45.542969 43.507812 45.460938 43.566406 L 39.101562 48.414062 C 38.996094 48.492188 38.875 48.535156 38.742188 48.535156 Z M 38.925781 40.695312 L 39.269531 46.792969 L 43.980469 43.203125 Z M 38.925781 40.695312 " fill-opacity="1" fill-rule="nonzero"/><path fill="#000000" d="M 57.300781 19.09375 C 57.207031 19.09375 57.121094 19.074219 57.039062 19.03125 L 50.214844 15.648438 C 50.070312 15.574219 49.96875 15.460938 49.917969 15.308594 C 49.863281 15.152344 49.875 15 49.949219 14.855469 L 51.824219 11.074219 C 51.949219 10.816406 52.121094 10.59375 52.339844 10.40625 C 52.554688 10.214844 52.800781 10.078125 53.074219 9.984375 C 53.347656 9.894531 53.625 9.855469 53.914062 9.875 C 54.199219 9.894531 54.472656 9.96875 54.730469 10.097656 L 58.726562 12.078125 C 58.984375 12.207031 59.207031 12.378906 59.398438 12.597656 C 59.585938 12.8125 59.726562 13.058594 59.820312 13.328125 C 59.910156 13.601562 59.945312 13.882812 59.925781 14.167969 C 59.90625 14.457031 59.835938 14.726562 59.707031 14.984375 L 57.832031 18.765625 C 57.722656 18.984375 57.546875 19.09375 57.300781 19.09375 Z M 51.273438 14.851562 L 57.035156 17.707031 L 58.644531 14.460938 C 58.765625 14.214844 58.78125 13.964844 58.695312 13.707031 C 58.609375 13.449219 58.445312 13.261719 58.199219 13.140625 L 54.203125 11.15625 C 53.960938 11.039062 53.710938 11.019531 53.453125 11.105469 C 53.195312 11.195312 53.003906 11.359375 52.882812 11.601562 Z M 51.273438 14.851562 " fill-opacity="1" fill-rule="nonzero"/><g clip-path="url(#e470a93c68)"><path fill="#000000" d="M 44.457031 53.230469 L 3.167969 53.230469 C 2.746094 53.226562 2.34375 53.148438 1.957031 52.988281 C 1.570312 52.828125 1.226562 52.597656 0.929688 52.300781 C 0.632812 52.003906 0.40625 51.660156 0.242188 51.273438 C 0.0820312 50.886719 0.00390625 50.484375 0.00390625 50.0625 L 0.00390625 9.9375 C 0.00390625 9.515625 0.0820312 9.113281 0.242188 8.726562 C 0.40625 8.339844 0.632812 7.996094 0.929688 7.699219 C 1.226562 7.402344 1.570312 7.175781 1.957031 7.011719 C 2.34375 6.851562 2.746094 6.773438 3.167969 6.769531 L 44.457031 6.769531 C 44.875 6.773438 45.277344 6.851562 45.664062 7.011719 C 46.054688 7.175781 46.394531 7.402344 46.691406 7.699219 C 46.988281 7.996094 47.21875 8.339844 47.378906 8.726562 C 47.539062 9.113281 47.621094 9.515625 47.621094 9.9375 L 47.621094 22.074219 C 47.621094 22.167969 47.601562 22.253906 47.558594 22.339844 L 38.878906 39.835938 L 39.269531 46.792969 L 44.628906 42.710938 L 46.496094 38.949219 C 46.558594 38.824219 46.652344 38.734375 46.773438 38.675781 C 46.898438 38.617188 47.027344 38.601562 47.164062 38.632812 C 47.296875 38.664062 47.40625 38.734375 47.492188 38.84375 C 47.578125 38.949219 47.621094 39.074219 47.621094 39.210938 L 47.621094 50.0625 C 47.621094 50.484375 47.539062 50.886719 47.378906 51.273438 C 47.21875 51.660156 46.988281 52.003906 46.691406 52.300781 C 46.394531 52.597656 46.054688 52.828125 45.667969 52.988281 C 45.277344 53.148438 44.875 53.226562 44.457031 53.230469 Z M 3.167969 7.957031 C 2.90625 7.957031 2.652344 8.007812 2.410156 8.109375 C 2.167969 8.207031 1.953125 8.351562 1.769531 8.535156 C 1.582031 8.722656 1.441406 8.9375 1.339844 9.179688 C 1.238281 9.421875 1.1875 9.671875 1.1875 9.9375 L 1.1875 50.0625 C 1.1875 50.324219 1.238281 50.578125 1.339844 50.820312 C 1.441406 51.0625 1.582031 51.277344 1.769531 51.460938 C 1.953125 51.648438 2.167969 51.792969 2.410156 51.890625 C 2.652344 51.992188 2.90625 52.042969 3.167969 52.042969 L 44.457031 52.042969 C 44.71875 52.042969 44.96875 51.992188 45.210938 51.890625 C 45.453125 51.792969 45.667969 51.648438 45.855469 51.460938 C 46.039062 51.277344 46.183594 51.0625 46.285156 50.820312 C 46.382812 50.578125 46.433594 50.324219 46.433594 50.0625 L 46.433594 41.738281 L 45.632812 43.359375 C 45.589844 43.441406 45.53125 43.511719 45.460938 43.570312 L 39.101562 48.414062 C 38.910156 48.558594 38.710938 48.578125 38.492188 48.480469 C 38.277344 48.378906 38.164062 48.210938 38.148438 47.976562 L 37.6875 39.746094 C 37.679688 39.640625 37.699219 39.542969 37.746094 39.449219 L 46.433594 21.9375 L 46.433594 9.9375 C 46.433594 9.675781 46.382812 9.421875 46.285156 9.179688 C 46.183594 8.9375 46.039062 8.722656 45.855469 8.539062 C 45.667969 8.351562 45.453125 8.207031 45.210938 8.109375 C 44.96875 8.007812 44.71875 7.957031 44.457031 7.957031 Z M 45.101562 43.097656 Z M 45.101562 43.097656 " fill-opacity="1" fill-rule="nonzero"/></g><path fill="#000000" d="M 35.359375 36.324219 L 6.320312 36.324219 C 6.15625 36.324219 6.015625 36.265625 5.902344 36.148438 C 5.785156 36.035156 5.726562 35.894531 5.726562 35.730469 C 5.726562 35.566406 5.785156 35.429688 5.902344 35.3125 C 6.015625 35.195312 6.15625 35.136719 6.320312 35.136719 L 35.359375 35.136719 C 35.523438 35.136719 35.664062 35.195312 35.78125 35.3125 C 35.894531 35.429688 35.953125 35.566406 35.953125 35.730469 C 35.953125 35.894531 35.894531 36.035156 35.78125 36.148438 C 35.664062 36.265625 35.523438 36.324219 35.359375 36.324219 Z M 35.359375 36.324219 " fill-opacity="1" fill-rule="nonzero"/><path fill="#000000" d="M 35.359375 43.222656 L 6.320312 43.222656 C 6.15625 43.222656 6.015625 43.167969 5.902344 43.050781 C 5.785156 42.933594 5.726562 42.796875 5.726562 42.632812 C 5.726562 42.46875 5.785156 42.328125 5.902344 42.210938 C 6.015625 42.097656 6.15625 42.039062 6.320312 42.039062 L 35.359375 42.039062 C 35.523438 42.039062 35.664062 42.097656 35.78125 42.210938 C 35.894531 42.328125 35.953125 42.46875 35.953125 42.632812 C 35.953125 42.796875 35.894531 42.933594 35.78125 43.050781 C 35.664062 43.167969 35.523438 43.222656 35.359375 43.222656 Z M 35.359375 43.222656 " fill-opacity="1" fill-rule="nonzero"/><path fill="#000000" d="M 6.800781 21.867188 C 7.265625 21.769531 8.007812 21.695312 8.757812 21.695312 C 9.832031 21.695312 10.519531 21.878906 11.039062 22.300781 C 11.46875 22.621094 11.730469 23.113281 11.730469 23.765625 C 11.730469 24.566406 11.199219 25.269531 10.324219 25.589844 L 10.324219 25.617188 C 11.113281 25.8125 12.039062 26.464844 12.039062 27.699219 C 12.046875 28.355469 11.8125 28.910156 11.335938 29.363281 C 10.753906 29.890625 9.820312 30.136719 8.464844 30.136719 C 7.90625 30.144531 7.351562 30.109375 6.800781 30.039062 Z M 7.871094 25.269531 L 8.84375 25.269531 C 9.980469 25.269531 10.644531 24.679688 10.644531 23.878906 C 10.644531 22.902344 9.90625 22.523438 8.820312 22.523438 C 8.328125 22.523438 8.042969 22.558594 7.871094 22.59375 Z M 7.871094 29.25 C 8.167969 29.292969 8.46875 29.308594 8.769531 29.300781 C 9.878906 29.300781 10.902344 28.894531 10.902344 27.6875 C 10.902344 26.550781 9.929688 26.082031 8.757812 26.082031 L 7.871094 26.082031 Z M 7.871094 29.25 " fill-opacity="1" fill-rule="nonzero"/><path fill="#000000" d="M 13.847656 21.757812 L 14.921875 21.757812 L 14.921875 29.164062 L 18.472656 29.164062 L 18.472656 30.066406 L 13.847656 30.066406 Z M 13.847656 21.757812 " fill-opacity="1" fill-rule="nonzero"/><path fill="#000000" d="M 26.65625 25.824219 C 26.65625 28.683594 24.917969 30.199219 22.796875 30.199219 C 20.605469 30.199219 19.0625 28.5 19.0625 25.984375 C 19.0625 23.347656 20.703125 21.621094 22.921875 21.621094 C 25.1875 21.621094 26.65625 23.359375 26.65625 25.824219 Z M 20.210938 25.960938 C 20.210938 27.734375 21.171875 29.324219 22.859375 29.324219 C 24.558594 29.324219 25.519531 27.761719 25.519531 25.875 C 25.519531 24.222656 24.660156 22.496094 22.871094 22.496094 C 21.097656 22.496094 20.210938 24.136719 20.210938 25.960938 Z M 20.210938 25.960938 " fill-opacity="1" fill-rule="nonzero"/><path fill="#000000" d="M 34.742188 29.695312 C 33.917969 29.992188 33.066406 30.144531 32.191406 30.152344 C 30.933594 30.152344 29.898438 29.832031 29.082031 29.054688 C 28.367188 28.363281 27.925781 27.253906 27.925781 25.960938 C 27.9375 23.484375 29.636719 21.671875 32.421875 21.671875 C 33.386719 21.671875 34.136719 21.878906 34.496094 22.054688 L 34.234375 22.929688 C 33.792969 22.730469 33.238281 22.570312 32.398438 22.570312 C 30.378906 22.570312 29.058594 23.828125 29.058594 25.910156 C 29.058594 28.019531 30.328125 29.261719 32.261719 29.261719 C 32.964844 29.261719 33.445312 29.164062 33.691406 29.042969 L 33.691406 26.5625 L 32.003906 26.5625 L 32.003906 25.703125 L 34.742188 25.703125 Z M 34.742188 29.695312 " fill-opacity="1" fill-rule="nonzero"/></svg>