<svg xmlns="http://www.w3.org/2000/svg" xmlns:xlink="http://www.w3.org/1999/xlink" width="80" zoomAndPan="magnify" viewBox="0 0 60 60" height="80" preserveAspectRatio="xMidYMid meet" version="1.0"><path fill="#000000" d="M 58.75 60 L 1.25 60 C 0.558594 60 0 59.441406 0 58.75 L 0 1.25 C 0 0.558594 0.558594 0 1.25 0 L 58.75 0 C 59.441406 0 60 0.558594 60 1.25 L 60 58.75 C 60 59.441406 59.441406 60 58.75 60 Z M 2.5 57.5 L 57.5 57.5 L 57.5 2.5 L 2.5 2.5 Z M 2.5 57.5 " fill-opacity="1" fill-rule="nonzero"/><path fill="#000000" d="M 16.25 52.5 L 8.75 52.5 C 8.058594 52.5 7.5 51.941406 7.5 51.25 L 7.5 43.75 C 7.5 43.058594 8.058594 42.5 8.75 42.5 C 9.441406 42.5 10 43.058594 10 43.75 L 10 50 L 16.25 50 C 16.941406 50 17.5 50.558594 17.5 51.25 C 17.5 51.941406 16.941406 52.5 16.25 52.5 Z M 16.25 52.5 " fill-opacity="1" fill-rule="nonzero"/><path fill="#000000" d="M 51.25 17.5 C 50.558594 17.5 50 16.941406 50 16.25 L 50 10 L 43.75 10 C 43.058594 10 42.5 9.441406 42.5 8.75 C 42.5 8.058594 43.058594 7.5 43.75 7.5 L 51.25 7.5 C 51.941406 7.5 52.5 8.058594 52.5 8.75 L 52.5 16.25 C 52.5 16.941406 51.941406 17.5 51.25 17.5 Z M 51.25 17.5 " fill-opacity="1" fill-rule="nonzero"/><path fill="#000000" d="M 8.75 52.5 C 8.429688 52.5 8.109375 52.378906 7.863281 52.136719 C 7.378906 51.648438 7.378906 50.855469 7.863281 50.367188 L 50.363281 7.867188 C 50.851562 7.378906 51.644531 7.378906 52.132812 7.867188 C 52.621094 8.355469 52.621094 9.148438 52.132812 9.636719 L 9.632812 52.136719 C 9.390625 52.378906 9.070312 52.5 8.75 52.5 Z M 8.75 52.5 " fill-opacity="1" fill-rule="nonzero"/></svg>