<svg xmlns="http://www.w3.org/2000/svg" xmlns:xlink="http://www.w3.org/1999/xlink" width="80" zoomAndPan="magnify" viewBox="0 0 60 60" height="80" preserveAspectRatio="xMidYMid meet" version="1.0"><defs><clipPath id="f430fc8d68"><path d="M 16 1.917969 L 53.554688 1.917969 L 53.554688 48 L 16 48 Z M 16 1.917969 " clip-rule="nonzero"/></clipPath><clipPath id="baa9e00d9e"><path d="M 6.304688 12 L 44 12 L 44 58.167969 L 6.304688 58.167969 Z M 6.304688 12 " clip-rule="nonzero"/></clipPath></defs><g clip-path="url(#f430fc8d68)"><path fill="#000000" d="M 50.929688 1.917969 L 19.429688 1.917969 C 17.988281 1.917969 16.804688 3.105469 16.804688 4.554688 L 16.804688 5.433594 L 18.554688 5.433594 L 18.554688 4.554688 C 18.554688 4.074219 18.949219 3.675781 19.429688 3.675781 L 50.929688 3.675781 C 51.410156 3.675781 51.804688 4.074219 51.804688 4.554688 C 51.804688 4.554688 51.804688 45.289062 51.804688 45.378906 C 51.804688 45.816406 51.238281 45.816406 50.929688 45.816406 L 50.054688 45.816406 L 50.054688 47.574219 C 50.054688 47.574219 50.929688 47.574219 50.929688 47.574219 C 51.628906 47.574219 52.199219 47.445312 52.636719 47.136719 C 53.207031 46.742188 53.554688 46.125 53.554688 45.378906 L 53.554688 4.554688 C 53.554688 3.105469 52.375 1.917969 50.929688 1.917969 Z M 50.929688 1.917969 " fill-opacity="1" fill-rule="nonzero"/></g><path fill="#000000" d="M 45.679688 7.191406 L 14.179688 7.191406 C 12.738281 7.191406 11.554688 8.378906 11.554688 9.828125 L 11.554688 10.707031 L 13.304688 10.707031 L 13.304688 9.828125 C 13.304688 9.347656 13.699219 8.949219 14.179688 8.949219 L 45.679688 8.949219 C 46.160156 8.949219 46.554688 9.347656 46.554688 9.828125 C 46.554688 9.828125 46.554688 50.652344 46.554688 50.652344 C 46.554688 51.046875 45.988281 51.089844 45.679688 51.089844 L 44.804688 51.089844 L 44.804688 52.847656 C 44.804688 52.847656 45.679688 52.847656 45.679688 52.847656 C 46.378906 52.847656 46.949219 52.71875 47.386719 52.410156 C 47.957031 52.015625 48.304688 51.398438 48.304688 50.652344 L 48.304688 9.828125 C 48.304688 8.378906 47.125 7.191406 45.679688 7.191406 Z M 45.679688 7.191406 " fill-opacity="1" fill-rule="nonzero"/><g clip-path="url(#baa9e00d9e)"><path fill="#000000" d="M 40.429688 12.464844 L 8.929688 12.464844 C 7.488281 12.464844 6.304688 13.652344 6.304688 15.101562 C 6.304688 15.101562 6.304688 48.410156 6.304688 48.410156 C 6.304688 48.675781 6.394531 48.9375 6.566406 49.113281 C 6.566406 49.113281 15.316406 57.902344 15.316406 57.902344 C 15.492188 58.078125 15.710938 58.167969 15.929688 58.167969 C 16.980469 58.167969 40.429688 58.167969 40.429688 58.167969 C 41.128906 58.167969 41.699219 58.035156 42.136719 57.726562 C 42.707031 57.332031 43.054688 56.714844 43.054688 55.96875 L 43.054688 15.101562 C 43.054688 13.652344 41.875 12.464844 40.429688 12.464844 Z M 15.054688 55.132812 L 9.367188 49.378906 L 14.179688 49.378906 C 14.660156 49.378906 15.054688 49.773438 15.054688 50.257812 Z M 41.304688 55.96875 C 41.304688 56.410156 40.738281 56.410156 40.429688 56.410156 C 40.429688 56.410156 19.386719 56.410156 16.804688 56.410156 L 16.804688 50.257812 C 16.804688 48.804688 15.625 47.621094 14.179688 47.621094 L 8.054688 47.621094 L 8.054688 15.101562 C 8.054688 14.617188 8.449219 14.222656 8.929688 14.222656 L 40.429688 14.222656 C 40.910156 14.222656 41.304688 14.617188 41.304688 15.101562 Z M 41.304688 55.96875 " fill-opacity="1" fill-rule="nonzero"/></g><path fill="#000000" d="M 37.804688 21.253906 L 11.554688 21.253906 C 11.074219 21.253906 10.679688 21.648438 10.679688 22.132812 C 10.679688 22.617188 11.074219 23.011719 11.554688 23.011719 L 37.804688 23.011719 C 38.285156 23.011719 38.679688 22.617188 38.679688 22.132812 C 38.679688 21.648438 38.285156 21.253906 37.804688 21.253906 Z M 37.804688 21.253906 " fill-opacity="1" fill-rule="nonzero"/><path fill="#000000" d="M 37.804688 25.648438 L 11.554688 25.648438 C 11.074219 25.648438 10.679688 26.042969 10.679688 26.527344 C 10.679688 27.011719 11.074219 27.40625 11.554688 27.40625 L 37.804688 27.40625 C 38.285156 27.40625 38.679688 27.011719 38.679688 26.527344 C 38.679688 26.042969 38.285156 25.648438 37.804688 25.648438 Z M 37.804688 25.648438 " fill-opacity="1" fill-rule="nonzero"/><path fill="#000000" d="M 37.804688 30.042969 L 11.554688 30.042969 C 11.074219 30.042969 10.679688 30.4375 10.679688 30.921875 C 10.679688 31.40625 11.074219 31.800781 11.554688 31.800781 L 37.804688 31.800781 C 38.285156 31.800781 38.679688 31.40625 38.679688 30.921875 C 38.679688 30.4375 38.285156 30.042969 37.804688 30.042969 Z M 37.804688 30.042969 " fill-opacity="1" fill-rule="nonzero"/><path fill="#000000" d="M 37.804688 34.4375 L 11.554688 34.4375 C 11.074219 34.4375 10.679688 34.832031 10.679688 35.316406 C 10.679688 35.800781 11.074219 36.195312 11.554688 36.195312 L 37.804688 36.195312 C 38.285156 36.195312 38.679688 35.800781 38.679688 35.316406 C 38.679688 34.832031 38.285156 34.4375 37.804688 34.4375 Z M 37.804688 34.4375 " fill-opacity="1" fill-rule="nonzero"/><path fill="#000000" d="M 37.804688 38.832031 L 11.554688 38.832031 C 11.074219 38.832031 10.679688 39.226562 10.679688 39.710938 C 10.679688 40.195312 11.074219 40.589844 11.554688 40.589844 L 37.804688 40.589844 C 38.285156 40.589844 38.679688 40.195312 38.679688 39.710938 C 38.679688 39.226562 38.285156 38.832031 37.804688 38.832031 Z M 37.804688 38.832031 " fill-opacity="1" fill-rule="nonzero"/><path fill="#000000" d="M 37.804688 43.226562 L 11.554688 43.226562 C 11.074219 43.226562 10.679688 43.621094 10.679688 44.105469 C 10.679688 44.585938 11.074219 44.984375 11.554688 44.984375 L 37.804688 44.984375 C 38.285156 44.984375 38.679688 44.585938 38.679688 44.105469 C 38.679688 43.621094 38.285156 43.226562 37.804688 43.226562 Z M 37.804688 43.226562 " fill-opacity="1" fill-rule="nonzero"/><path fill="#000000" d="M 37.804688 47.621094 L 24.679688 47.621094 C 24.199219 47.621094 23.804688 48.015625 23.804688 48.5 C 23.804688 48.980469 24.199219 49.378906 24.679688 49.378906 L 37.804688 49.378906 C 38.285156 49.378906 38.679688 48.980469 38.679688 48.5 C 38.679688 48.015625 38.285156 47.621094 37.804688 47.621094 Z M 37.804688 47.621094 " fill-opacity="1" fill-rule="nonzero"/></svg>