<svg xmlns="http://www.w3.org/2000/svg" xmlns:xlink="http://www.w3.org/1999/xlink" width="80" zoomAndPan="magnify" viewBox="0 0 60 60" height="80" preserveAspectRatio="xMidYMid meet" version="1.0"><defs><clipPath id="bec2a59208"><path d="M 16 0 L 55.6875 0 L 55.6875 49 L 16 49 Z M 16 0 " clip-rule="nonzero"/></clipPath><clipPath id="444464afa5"><path d="M 4.6875 11 L 45 11 L 45 60 L 4.6875 60 Z M 4.6875 11 " clip-rule="nonzero"/></clipPath></defs><g clip-path="url(#bec2a59208)"><path fill="#000000" d="M 52.855469 0 L 18.855469 0 C 17.296875 0 16.019531 1.265625 16.019531 2.8125 L 16.019531 3.75 L 17.910156 3.75 L 17.910156 2.8125 C 17.910156 2.296875 18.335938 1.875 18.855469 1.875 L 52.855469 1.875 C 53.375 1.875 53.796875 2.296875 53.796875 2.8125 C 53.796875 2.8125 53.796875 46.265625 53.796875 46.359375 C 53.796875 46.828125 53.183594 46.828125 52.855469 46.828125 L 51.910156 46.828125 L 51.910156 48.703125 C 51.910156 48.703125 52.855469 48.703125 52.855469 48.703125 C 53.609375 48.703125 54.222656 48.5625 54.695312 48.234375 C 55.308594 47.8125 55.6875 47.15625 55.6875 46.359375 L 55.6875 2.8125 C 55.6875 1.265625 54.414062 0 52.855469 0 Z M 52.855469 0 " fill-opacity="1" fill-rule="nonzero"/></g><path fill="#000000" d="M 47.1875 5.625 L 13.1875 5.625 C 11.628906 5.625 10.355469 6.890625 10.355469 8.4375 L 10.355469 9.375 L 12.242188 9.375 L 12.242188 8.4375 C 12.242188 7.921875 12.667969 7.5 13.1875 7.5 L 47.1875 7.5 C 47.707031 7.5 48.132812 7.921875 48.132812 8.4375 C 48.132812 8.4375 48.132812 51.984375 48.132812 51.984375 C 48.132812 52.40625 47.519531 52.453125 47.1875 52.453125 L 46.242188 52.453125 L 46.242188 54.328125 C 46.242188 54.328125 47.1875 54.328125 47.1875 54.328125 C 47.941406 54.328125 48.558594 54.1875 49.027344 53.859375 C 49.644531 53.4375 50.019531 52.78125 50.019531 51.984375 L 50.019531 8.4375 C 50.019531 6.890625 48.746094 5.625 47.1875 5.625 Z M 47.1875 5.625 " fill-opacity="1" fill-rule="nonzero"/><g clip-path="url(#444464afa5)"><path fill="#000000" d="M 41.519531 11.25 L 7.519531 11.25 C 5.960938 11.25 4.6875 12.515625 4.6875 14.0625 C 4.6875 14.0625 4.6875 49.59375 4.6875 49.59375 C 4.6875 49.875 4.78125 50.15625 4.972656 50.34375 C 4.972656 50.34375 14.414062 59.71875 14.414062 59.71875 C 14.605469 59.90625 14.839844 60 15.078125 60 C 16.210938 60 41.519531 60 41.519531 60 C 42.277344 60 42.890625 59.859375 43.363281 59.53125 C 43.976562 59.109375 44.355469 58.453125 44.355469 57.65625 L 44.355469 14.0625 C 44.355469 12.515625 43.078125 11.25 41.519531 11.25 Z M 14.132812 56.765625 L 7.992188 50.625 L 13.1875 50.625 C 13.707031 50.625 14.132812 51.046875 14.132812 51.5625 Z M 42.464844 57.65625 C 42.464844 58.125 41.851562 58.125 41.519531 58.125 C 41.519531 58.125 18.808594 58.125 16.019531 58.125 L 16.019531 51.5625 C 16.019531 50.015625 14.746094 48.75 13.1875 48.75 L 6.578125 48.75 L 6.578125 14.0625 C 6.578125 13.546875 7 13.125 7.519531 13.125 L 41.519531 13.125 C 42.039062 13.125 42.464844 13.546875 42.464844 14.0625 Z M 42.464844 57.65625 " fill-opacity="1" fill-rule="nonzero"/></g><path fill="#000000" d="M 38.6875 20.625 L 10.355469 20.625 C 9.835938 20.625 9.410156 21.046875 9.410156 21.5625 C 9.410156 22.078125 9.835938 22.5 10.355469 22.5 L 38.6875 22.5 C 39.207031 22.5 39.632812 22.078125 39.632812 21.5625 C 39.632812 21.046875 39.207031 20.625 38.6875 20.625 Z M 38.6875 20.625 " fill-opacity="1" fill-rule="nonzero"/><path fill="#000000" d="M 38.6875 25.3125 L 10.355469 25.3125 C 9.835938 25.3125 9.410156 25.734375 9.410156 26.25 C 9.410156 26.765625 9.835938 27.1875 10.355469 27.1875 L 38.6875 27.1875 C 39.207031 27.1875 39.632812 26.765625 39.632812 26.25 C 39.632812 25.734375 39.207031 25.3125 38.6875 25.3125 Z M 38.6875 25.3125 " fill-opacity="1" fill-rule="nonzero"/><path fill="#000000" d="M 38.6875 30 L 10.355469 30 C 9.835938 30 9.410156 30.421875 9.410156 30.9375 C 9.410156 31.453125 9.835938 31.875 10.355469 31.875 L 38.6875 31.875 C 39.207031 31.875 39.632812 31.453125 39.632812 30.9375 C 39.632812 30.421875 39.207031 30 38.6875 30 Z M 38.6875 30 " fill-opacity="1" fill-rule="nonzero"/><path fill="#000000" d="M 38.6875 34.6875 L 10.355469 34.6875 C 9.835938 34.6875 9.410156 35.109375 9.410156 35.625 C 9.410156 36.140625 9.835938 36.5625 10.355469 36.5625 L 38.6875 36.5625 C 39.207031 36.5625 39.632812 36.140625 39.632812 35.625 C 39.632812 35.109375 39.207031 34.6875 38.6875 34.6875 Z M 38.6875 34.6875 " fill-opacity="1" fill-rule="nonzero"/><path fill="#000000" d="M 38.6875 39.375 L 10.355469 39.375 C 9.835938 39.375 9.410156 39.796875 9.410156 40.3125 C 9.410156 40.828125 9.835938 41.25 10.355469 41.25 L 38.6875 41.25 C 39.207031 41.25 39.632812 40.828125 39.632812 40.3125 C 39.632812 39.796875 39.207031 39.375 38.6875 39.375 Z M 38.6875 39.375 " fill-opacity="1" fill-rule="nonzero"/><path fill="#000000" d="M 38.6875 44.0625 L 10.355469 44.0625 C 9.835938 44.0625 9.410156 44.484375 9.410156 45 C 9.410156 45.515625 9.835938 45.9375 10.355469 45.9375 L 38.6875 45.9375 C 39.207031 45.9375 39.632812 45.515625 39.632812 45 C 39.632812 44.484375 39.207031 44.0625 38.6875 44.0625 Z M 38.6875 44.0625 " fill-opacity="1" fill-rule="nonzero"/><path fill="#000000" d="M 38.6875 48.75 L 24.519531 48.75 C 24 48.75 23.578125 49.171875 23.578125 49.6875 C 23.578125 50.203125 24 50.625 24.519531 50.625 L 38.6875 50.625 C 39.207031 50.625 39.632812 50.203125 39.632812 49.6875 C 39.632812 49.171875 39.207031 48.75 38.6875 48.75 Z M 38.6875 48.75 " fill-opacity="1" fill-rule="nonzero"/></svg>