<svg xmlns="http://www.w3.org/2000/svg" xmlns:xlink="http://www.w3.org/1999/xlink" width="80" zoomAndPan="magnify" viewBox="0 0 60 60" height="80" preserveAspectRatio="xMidYMid meet" version="1.0"><path fill="#000000" d="M 36.25 7.5 C 35.558594 7.5 35 6.941406 35 6.25 L 35 2.5 L 2.5 2.5 L 2.5 6.25 C 2.5 6.941406 1.941406 7.5 1.25 7.5 C 0.558594 7.5 0 6.941406 0 6.25 L 0 1.25 C 0 0.558594 0.558594 0 1.25 0 L 36.25 0 C 36.941406 0 37.5 0.558594 37.5 1.25 L 37.5 6.25 C 37.5 6.941406 36.941406 7.5 36.25 7.5 Z M 36.25 7.5 " fill-opacity="1" fill-rule="nonzero"/><path fill="#000000" d="M 18.75 60 C 18.058594 60 17.5 59.441406 17.5 58.75 L 17.5 1.25 C 17.5 0.558594 18.058594 0 18.75 0 C 19.441406 0 20 0.558594 20 1.25 L 20 58.75 C 20 59.441406 19.441406 60 18.75 60 Z M 18.75 60 " fill-opacity="1" fill-rule="nonzero"/><path fill="#000000" d="M 58.75 32.5 C 58.058594 32.5 57.5 31.941406 57.5 31.25 L 57.5 30 L 40 30 L 40 31.25 C 40 31.941406 39.441406 32.5 38.75 32.5 C 38.058594 32.5 37.5 31.941406 37.5 31.25 L 37.5 28.75 C 37.5 28.058594 38.058594 27.5 38.75 27.5 L 58.75 27.5 C 59.441406 27.5 60 28.058594 60 28.75 L 60 31.25 C 60 31.941406 59.441406 32.5 58.75 32.5 Z M 58.75 32.5 " fill-opacity="1" fill-rule="nonzero"/><path fill="#000000" d="M 48.75 60 C 48.058594 60 47.5 59.441406 47.5 58.75 L 47.5 28.75 C 47.5 28.058594 48.058594 27.5 48.75 27.5 C 49.441406 27.5 50 28.058594 50 28.75 L 50 58.75 C 50 59.441406 49.441406 60 48.75 60 Z M 48.75 60 " fill-opacity="1" fill-rule="nonzero"/><path fill="#000000" d="M 23.75 60 L 13.75 60 C 13.058594 60 12.5 59.441406 12.5 58.75 C 12.5 58.058594 13.058594 57.5 13.75 57.5 L 23.75 57.5 C 24.441406 57.5 25 58.058594 25 58.75 C 25 59.441406 24.441406 60 23.75 60 Z M 23.75 60 " fill-opacity="1" fill-rule="nonzero"/><path fill="#000000" d="M 51.25 60 L 46.25 60 C 45.558594 60 45 59.441406 45 58.75 C 45 58.058594 45.558594 57.5 46.25 57.5 L 51.25 57.5 C 51.941406 57.5 52.5 58.058594 52.5 58.75 C 52.5 59.441406 51.941406 60 51.25 60 Z M 51.25 60 " fill-opacity="1" fill-rule="nonzero"/></svg>