<svg xmlns="http://www.w3.org/2000/svg" xmlns:xlink="http://www.w3.org/1999/xlink" width="80" zoomAndPan="magnify" viewBox="0 0 60 60" height="80" preserveAspectRatio="xMidYMid meet" version="1.0"><defs><clipPath id="7e08fdbe00"><path d="M 8 0 L 56.023438 0 L 56.023438 60 L 8 60 Z M 8 0 " clip-rule="nonzero"/></clipPath><clipPath id="6da34aadb4"><path d="M 4.273438 0 L 20 0 L 20 27 L 4.273438 27 Z M 4.273438 0 " clip-rule="nonzero"/></clipPath></defs><g clip-path="url(#7e08fdbe00)"><path fill="#253439" d="M 52.335938 49.285156 L 45.238281 56.339844 L 45.238281 49.285156 Z M 56.015625 1.070312 C 56.015625 0.476562 55.535156 0 54.9375 0 L 16.140625 0 C 15.542969 0 15.0625 0.476562 15.0625 1.070312 C 15.0625 1.660156 15.542969 2.140625 16.140625 2.140625 L 53.859375 2.140625 L 53.859375 47.140625 L 44.160156 47.144531 C 43.566406 47.144531 43.082031 47.621094 43.082031 48.214844 L 43.082031 57.855469 L 10.75 57.855469 L 10.75 28.925781 C 10.75 28.335938 10.269531 27.855469 9.671875 27.855469 C 9.078125 27.855469 8.59375 28.335938 8.59375 28.925781 L 8.59375 58.925781 C 8.59375 59.519531 9.078125 59.996094 9.671875 59.996094 L 44.152344 60 C 44.15625 60 44.15625 60 44.160156 60 C 44.460938 60 44.730469 59.878906 44.925781 59.679688 L 55.695312 48.976562 C 55.796875 48.875 55.878906 48.757812 55.933594 48.625 C 55.9375 48.613281 55.9375 48.605469 55.941406 48.597656 C 55.964844 48.542969 55.984375 48.484375 55.996094 48.421875 C 56.007812 48.371094 56.007812 48.320312 56.011719 48.265625 C 56.011719 48.25 56.015625 48.230469 56.015625 48.214844 C 56.015625 48.210938 56.015625 48.210938 56.015625 48.210938 L 56.015625 1.070312 " fill-opacity="1" fill-rule="nonzero"/></g><g clip-path="url(#6da34aadb4)"><path fill="#253439" d="M 19.371094 19.285156 L 19.371094 7.5 C 19.371094 6.90625 18.890625 6.425781 18.292969 6.425781 C 17.699219 6.425781 17.214844 6.90625 17.214844 7.5 L 17.214844 19.285156 C 17.214844 22.238281 14.800781 24.640625 11.828125 24.640625 C 8.855469 24.640625 6.4375 22.238281 6.4375 19.285156 L 6.4375 5.355469 C 6.4375 3.582031 7.890625 2.140625 9.671875 2.140625 C 11.457031 2.140625 12.90625 3.582031 12.90625 5.355469 L 12.90625 19.285156 C 12.90625 19.875 12.421875 20.355469 11.828125 20.355469 C 11.234375 20.355469 10.75 19.875 10.75 19.285156 L 10.75 7.5 C 10.75 6.90625 10.269531 6.425781 9.671875 6.425781 C 9.078125 6.425781 8.59375 6.90625 8.59375 7.5 L 8.59375 19.285156 C 8.59375 21.058594 10.042969 22.5 11.828125 22.5 C 13.609375 22.5 15.0625 21.058594 15.0625 19.285156 L 15.0625 5.355469 C 15.0625 2.402344 12.644531 0 9.671875 0 C 6.699219 0 4.285156 2.402344 4.285156 5.355469 L 4.285156 19.285156 C 4.285156 23.417969 7.667969 26.785156 11.828125 26.785156 C 15.988281 26.785156 19.371094 23.417969 19.371094 19.285156 " fill-opacity="1" fill-rule="nonzero"/></g></svg>