<svg xmlns="http://www.w3.org/2000/svg" xmlns:xlink="http://www.w3.org/1999/xlink" width="80" zoomAndPan="magnify" viewBox="0 0 60 60" height="80" preserveAspectRatio="xMidYMid meet" version="1.0"><defs><clipPath id="9616044296"><path d="M 14 2.398438 L 22 2.398438 L 22 13 L 14 13 Z M 14 2.398438 " clip-rule="nonzero"/></clipPath><clipPath id="0001eb4c13"><path d="M 1 2.398438 L 9 2.398438 L 9 13 L 1 13 Z M 1 2.398438 " clip-rule="nonzero"/></clipPath></defs><path fill="#253439" d="M 13.777344 13.210938 C 13.777344 10.320312 16.121094 7.980469 19.011719 7.980469 C 21.902344 7.980469 24.246094 10.320312 24.246094 13.210938 C 24.246094 16.101562 21.902344 18.445312 19.011719 18.445312 C 16.121094 18.445312 13.777344 16.101562 13.777344 13.210938 " fill-opacity="1" fill-rule="nonzero"/><g clip-path="url(#9616044296)"><path fill="#253439" d="M 21.152344 2.394531 C 21.828125 2.394531 22.222656 3.160156 21.832031 3.710938 L 15.910156 12.039062 L 14.816406 10.09375 L 20.492188 2.71875 C 20.652344 2.515625 20.894531 2.394531 21.152344 2.394531 " fill-opacity="1" fill-rule="nonzero"/></g><path fill="#253439" d="M 0.0078125 13.210938 C 0.0078125 10.320312 2.351562 7.980469 5.242188 7.980469 C 8.132812 7.980469 10.476562 10.320312 10.476562 13.210938 C 10.476562 16.101562 8.132812 18.445312 5.242188 18.445312 C 2.351562 18.445312 0.0078125 16.101562 0.0078125 13.210938 " fill-opacity="1" fill-rule="nonzero"/><g clip-path="url(#0001eb4c13)"><path fill="#253439" d="M 7.382812 2.394531 C 8.058594 2.394531 8.449219 3.160156 8.058594 3.710938 L 2.140625 12.039062 L 1.046875 10.09375 L 6.722656 2.71875 C 6.878906 2.515625 7.125 2.394531 7.382812 2.394531 " fill-opacity="1" fill-rule="nonzero"/></g><path fill="#253439" d="M 13.09375 60.144531 L 11.160156 60.144531 L 11.160156 22.691406 L 13.09375 22.691406 L 13.09375 60.144531 " fill-opacity="1" fill-rule="nonzero"/><path fill="#253439" d="M 65.996094 11.824219 L 28.542969 11.824219 L 28.542969 9.890625 L 65.996094 9.890625 L 65.996094 11.824219 " fill-opacity="1" fill-rule="nonzero"/></svg>