<svg xmlns="http://www.w3.org/2000/svg" xmlns:xlink="http://www.w3.org/1999/xlink" width="80" zoomAndPan="magnify" viewBox="0 0 60 60" height="80" preserveAspectRatio="xMidYMid meet" version="1.0"><defs><clipPath id="eddc748c3e"><path d="M 0.75 0 L 59 0 L 59 60 L 0.75 60 Z M 0.75 0 " clip-rule="nonzero"/></clipPath></defs><g clip-path="url(#eddc748c3e)"><path fill="#000000" d="M 3.664062 0.324219 L 3.539062 0.675781 C 3.332031 1.28125 3.132812 1.578125 2.839844 1.761719 C 2.550781 1.945312 2.078125 2.039062 1.265625 2.039062 L 0.746094 2.039062 L 0.746094 4.605469 L 2.855469 4.605469 L 2.855469 15.019531 L 5.914062 15.019531 L 5.914062 0.324219 Z M 4.28125 1.363281 L 4.871094 1.363281 L 4.871094 13.980469 L 3.894531 13.980469 L 3.894531 3.554688 L 1.792969 3.554688 L 1.792969 2.976562 C 2.386719 2.929688 2.976562 2.898438 3.398438 2.640625 C 3.828125 2.367188 4.046875 1.867188 4.28125 1.363281 Z M 15.183594 6.628906 C 13.828125 6.65625 13.828125 8.675781 15.183594 8.703125 L 20.523438 8.703125 C 21.109375 8.722656 21.589844 8.253906 21.589844 7.667969 C 21.589844 7.082031 21.109375 6.613281 20.523438 6.628906 Z M 24.941406 6.628906 C 23.582031 6.65625 23.582031 8.675781 24.941406 8.703125 L 36.546875 8.703125 C 37.128906 8.722656 37.609375 8.253906 37.609375 7.667969 C 37.609375 7.082031 37.128906 6.613281 36.546875 6.628906 Z M 42.128906 6.628906 C 40.769531 6.65625 40.769531 8.675781 42.128906 8.703125 L 57.910156 8.703125 C 58.488281 8.722656 58.96875 8.253906 58.96875 7.667969 C 58.96875 7.082031 58.488281 6.613281 57.910156 6.628906 Z M 30.222656 22.554688 C 29.117188 22.554688 28.195312 22.917969 27.589844 23.628906 C 26.976562 24.335938 26.703125 25.335938 26.703125 26.507812 L 26.703125 28.351562 L 29.644531 28.351562 L 29.644531 26.367188 C 29.644531 25.953125 29.738281 25.746094 29.804688 25.660156 C 29.875 25.578125 29.945312 25.539062 30.167969 25.539062 C 30.398438 25.539062 30.449219 25.566406 30.519531 25.65625 C 30.59375 25.746094 30.691406 26.027344 30.691406 26.582031 C 30.691406 27.730469 30.351562 28.582031 28.847656 30.277344 C 27.304688 32.003906 26.703125 33.394531 26.703125 35.429688 L 26.703125 37.441406 L 33.566406 37.441406 L 33.566406 34.453125 L 29.792969 34.453125 C 29.808594 34.144531 29.835938 33.875 29.992188 33.558594 C 30.183594 33.167969 30.539062 32.6875 31.128906 32.019531 C 33.039062 29.867188 33.746094 28.261719 33.746094 26.507812 C 33.746094 25.335938 33.472656 24.34375 32.863281 23.628906 C 32.253906 22.921875 31.320312 22.554688 30.222656 22.554688 Z M 19.121094 22.648438 L 19 23 C 18.785156 23.609375 18.59375 23.902344 18.300781 24.082031 C 18.011719 24.257812 17.539062 24.363281 16.726562 24.363281 L 16.203125 24.363281 L 16.203125 26.929688 L 18.316406 26.929688 L 18.316406 37.347656 L 21.371094 37.347656 L 21.371094 22.648438 Z M 30.222656 23.589844 C 31.101562 23.589844 31.675781 23.84375 32.066406 24.304688 C 32.464844 24.765625 32.707031 25.496094 32.707031 26.507812 C 32.707031 27.996094 32.171875 29.265625 30.34375 31.324219 C 29.726562 32.027344 29.316406 32.570312 29.054688 33.101562 C 28.789062 33.625 28.6875 34.140625 28.6875 34.675781 L 28.6875 35.488281 L 32.519531 35.488281 L 32.519531 36.402344 L 27.738281 36.402344 L 27.738281 35.429688 C 27.738281 33.578125 28.160156 32.601562 29.621094 30.964844 C 31.195312 29.195312 31.730469 27.972656 31.730469 26.582031 C 31.730469 25.914062 31.628906 25.40625 31.339844 25.027344 C 31.046875 24.644531 30.578125 24.503906 30.167969 24.503906 C 29.742188 24.503906 29.296875 24.652344 29.003906 24.992188 C 28.714844 25.339844 28.601562 25.8125 28.601562 26.367188 L 28.601562 27.3125 L 27.738281 27.3125 L 27.738281 26.507812 C 27.738281 25.496094 27.972656 24.765625 28.367188 24.304688 C 28.765625 23.84375 29.339844 23.589844 30.21875 23.589844 Z M 19.734375 23.691406 L 20.324219 23.691406 L 20.324219 36.296875 L 19.355469 36.296875 L 19.355469 25.886719 L 17.25 25.886719 L 17.25 25.296875 C 17.847656 25.253906 18.4375 25.226562 18.851562 24.964844 C 19.289062 24.695312 19.507812 24.199219 19.734375 23.691406 Z M 36.445312 29.054688 C 35.089844 29.15625 35.191406 31.175781 36.546875 31.136719 L 48.15625 31.136719 C 48.734375 31.148438 49.214844 30.679688 49.214844 30.09375 C 49.214844 29.515625 48.734375 29.046875 48.15625 29.054688 L 36.546875 29.054688 C 36.515625 29.054688 36.480469 29.054688 36.449219 29.054688 Z M 52.46875 29.054688 C 51.109375 29.148438 51.207031 31.171875 52.566406 31.136719 L 57.910156 31.136719 C 58.488281 31.148438 58.96875 30.679688 58.96875 30.09375 C 58.96875 29.515625 58.488281 29.046875 57.910156 29.054688 L 52.566406 29.054688 C 52.535156 29.054688 52.5 29.054688 52.46875 29.054688 Z M 23.878906 34.277344 C 23.035156 34.277344 22.324219 34.984375 22.324219 35.835938 L 22.324219 36.011719 C 22.324219 36.855469 23.035156 37.566406 23.878906 37.566406 L 24.050781 37.566406 C 24.894531 37.566406 25.613281 36.855469 25.613281 36.011719 L 25.613281 35.835938 C 25.613281 34.984375 24.894531 34.277344 24.050781 34.277344 Z M 23.964844 35.570312 C 24.140625 35.625 24.261719 35.75 24.3125 35.921875 C 24.257812 36.09375 24.132812 36.222656 23.964844 36.269531 C 23.792969 36.222656 23.671875 36.09375 23.621094 35.921875 C 23.671875 35.75 23.792969 35.625 23.964844 35.570312 Z M 45.003906 44.515625 C 43.933594 44.515625 43.011719 44.863281 42.410156 45.566406 C 41.804688 46.265625 41.539062 47.25 41.539062 48.417969 L 41.539062 49.667969 L 44.484375 49.667969 L 44.484375 48.253906 C 44.484375 47.878906 44.570312 47.683594 44.628906 47.609375 C 44.691406 47.53125 44.746094 47.503906 44.925781 47.503906 C 45.105469 47.503906 45.175781 47.53125 45.253906 47.625 C 45.324219 47.710938 45.417969 47.933594 45.417969 48.34375 L 45.417969 49.339844 C 45.417969 49.816406 45.320312 50.03125 45.238281 50.121094 C 45.148438 50.207031 45.019531 50.261719 44.730469 50.261719 L 43.476562 50.261719 L 43.476562 53.253906 L 44.671875 53.253906 C 45.042969 53.253906 45.164062 53.320312 45.265625 53.449219 C 45.363281 53.582031 45.472656 53.894531 45.472656 54.46875 L 45.472656 55.582031 C 45.472656 56.128906 45.363281 56.402344 45.296875 56.488281 C 45.226562 56.578125 45.179688 56.605469 44.949219 56.605469 C 44.730469 56.605469 44.652344 56.5625 44.585938 56.484375 C 44.511719 56.402344 44.417969 56.195312 44.417969 55.78125 L 44.417969 54.050781 L 41.484375 54.050781 L 41.484375 55.683594 C 41.484375 56.859375 41.753906 57.839844 42.367188 58.535156 C 42.980469 59.238281 43.910156 59.597656 45.003906 59.597656 L 45.527344 59.597656 L 45.527344 59.382812 C 46.347656 59.269531 47.144531 59.105469 47.636719 58.546875 C 48.25 57.851562 48.527344 56.871094 48.527344 55.699219 L 48.527344 54.484375 C 48.527344 53.738281 48.421875 53.074219 48.132812 52.5 C 47.953125 52.128906 47.566406 51.917969 47.230469 51.671875 C 47.539062 51.4375 47.898438 51.257812 48.074219 50.910156 C 48.359375 50.351562 48.472656 49.671875 48.472656 48.886719 L 48.472656 48.410156 C 48.472656 47.234375 48.199219 46.253906 47.59375 45.558594 C 46.984375 44.863281 46.074219 44.515625 45.003906 44.515625 Z M 34.589844 44.757812 L 34.46875 45.105469 C 34.257812 45.71875 34.058594 46.011719 33.765625 46.195312 C 33.480469 46.378906 33 46.472656 32.1875 46.472656 L 31.675781 46.472656 L 31.675781 49.039062 L 33.777344 49.039062 L 33.777344 59.453125 L 36.828125 59.453125 L 36.828125 44.757812 Z M 45.003906 45.550781 C 45.859375 45.550781 46.417969 45.796875 46.808594 46.238281 C 47.195312 46.6875 47.429688 47.398438 47.429688 48.410156 L 47.429688 48.886719 C 47.429688 49.566406 47.328125 50.082031 47.144531 50.433594 C 46.964844 50.789062 46.726562 51.007812 46.335938 51.164062 L 46.003906 51.296875 L 46.003906 52.027344 L 46.335938 52.160156 C 46.765625 52.332031 47.023438 52.585938 47.207031 52.957031 C 47.394531 53.332031 47.488281 53.84375 47.488281 54.484375 L 47.488281 55.699219 C 47.488281 56.710938 47.25 57.417969 46.855469 57.863281 C 46.460938 58.308594 45.886719 58.554688 45.003906 58.554688 C 44.121094 58.554688 43.542969 58.304688 43.144531 57.851562 C 42.753906 57.40625 42.515625 56.691406 42.515625 55.683594 L 42.515625 55.09375 L 43.382812 55.09375 L 43.382812 55.78125 C 43.382812 56.339844 43.496094 56.808594 43.789062 57.15625 C 44.082031 57.503906 44.53125 57.648438 44.949219 57.648438 C 45.359375 57.648438 45.832031 57.503906 46.125 57.125 C 46.417969 56.75 46.511719 56.246094 46.511719 55.582031 L 46.511719 54.46875 C 46.511719 53.785156 46.417969 53.230469 46.085938 52.8125 C 45.753906 52.386719 45.21875 52.210938 44.671875 52.210938 L 44.511719 52.210938 L 44.511719 51.304688 L 44.730469 51.304688 C 45.1875 51.304688 45.660156 51.183594 46 50.824219 C 46.328125 50.46875 46.457031 49.960938 46.457031 49.339844 L 46.457031 48.34375 C 46.457031 47.777344 46.339844 47.316406 46.058594 46.972656 C 45.777344 46.625 45.335938 46.464844 44.925781 46.464844 C 44.523438 46.464844 44.097656 46.613281 43.824219 46.949219 C 43.546875 47.28125 43.4375 47.730469 43.4375 48.253906 L 43.4375 48.628906 L 42.570312 48.628906 L 42.570312 48.417969 C 42.570312 47.410156 42.8125 46.703125 43.199219 46.25 C 43.589844 45.796875 44.15625 45.550781 45.003906 45.550781 Z M 35.203125 45.796875 L 35.792969 45.796875 L 35.792969 58.40625 L 34.820312 58.40625 L 34.820312 47.996094 L 32.707031 47.996094 L 32.707031 47.410156 C 33.308594 47.363281 33.894531 47.332031 34.3125 47.074219 C 34.742188 46.796875 34.976562 46.304688 35.203125 45.796875 Z M 52.566406 51.007812 C 51.980469 50.996094 51.5 51.464844 51.5 52.046875 C 51.5 52.628906 51.980469 53.101562 52.566406 53.089844 L 57.910156 53.089844 C 59.261719 53.054688 59.261719 51.035156 57.910156 51.007812 Z M 39.339844 56.382812 C 38.492188 56.382812 37.78125 57.101562 37.78125 57.945312 L 37.78125 58.117188 C 37.78125 58.960938 38.492188 59.675781 39.339844 59.675781 L 39.519531 59.675781 C 40.363281 59.675781 41.074219 58.960938 41.074219 58.117188 L 41.074219 57.945312 C 41.074219 57.101562 40.363281 56.382812 39.519531 56.382812 Z M 39.429688 57.675781 C 39.601562 57.730469 39.726562 57.859375 39.777344 58.027344 C 39.726562 58.199219 39.601562 58.320312 39.429688 58.375 C 39.257812 58.328125 39.132812 58.207031 39.078125 58.027344 C 39.125 57.859375 39.257812 57.726562 39.429688 57.675781 Z M 39.429688 57.675781 " fill-opacity="1" fill-rule="nonzero"/></g></svg>