<svg xmlns="http://www.w3.org/2000/svg" xmlns:xlink="http://www.w3.org/1999/xlink" width="80" zoomAndPan="magnify" viewBox="0 0 60 60" height="80" preserveAspectRatio="xMidYMid meet" version="1.0"><defs><clipPath id="7136b03972"><path d="M 0.382812 6.824219 L 59.632812 6.824219 L 59.632812 53.324219 L 0.382812 53.324219 Z M 0.382812 6.824219 " clip-rule="nonzero"/></clipPath></defs><g clip-path="url(#7136b03972)"><path fill="#253439" d="M 53.207031 6.875 C 52.5 6.875 51.921875 7.453125 51.921875 8.164062 L 51.921875 13.320312 C 51.921875 14.027344 52.5 14.609375 53.207031 14.609375 L 58.347656 14.609375 C 59.058594 14.609375 59.632812 14.027344 59.632812 13.320312 L 59.632812 8.164062 C 59.632812 7.453125 59.058594 6.875 58.347656 6.875 Z M 1.796875 9.453125 C 1.335938 9.449219 0.90625 9.6875 0.667969 10.09375 C 0.4375 10.496094 0.4375 10.988281 0.667969 11.390625 C 0.90625 11.792969 1.335938 12.035156 1.796875 12.03125 L 45.496094 12.03125 C 45.957031 12.035156 46.390625 11.792969 46.625 11.390625 C 46.855469 10.988281 46.855469 10.496094 46.625 10.09375 C 46.390625 9.6875 45.957031 9.449219 45.496094 9.453125 Z M 54.492188 9.453125 L 57.0625 9.453125 L 57.0625 12.03125 L 54.492188 12.03125 Z M 53.207031 19.765625 C 52.5 19.765625 51.921875 20.34375 51.921875 21.054688 L 51.921875 26.210938 C 51.921875 26.917969 52.5 27.496094 53.207031 27.496094 L 58.347656 27.496094 C 59.058594 27.496094 59.632812 26.917969 59.632812 26.210938 L 59.632812 21.054688 C 59.632812 20.34375 59.058594 19.765625 58.347656 19.765625 Z M 1.796875 22.34375 C 1.335938 22.335938 0.90625 22.578125 0.667969 22.980469 C 0.4375 23.382812 0.4375 23.878906 0.667969 24.28125 C 0.90625 24.683594 1.335938 24.925781 1.796875 24.921875 L 45.496094 24.921875 C 45.957031 24.925781 46.390625 24.683594 46.625 24.28125 C 46.855469 23.878906 46.855469 23.382812 46.625 22.980469 C 46.390625 22.578125 45.957031 22.335938 45.496094 22.34375 Z M 54.492188 22.34375 L 57.0625 22.34375 L 57.0625 24.921875 L 54.492188 24.921875 Z M 53.207031 32.652344 C 52.5 32.652344 51.921875 33.234375 51.921875 33.941406 L 51.921875 39.097656 C 51.921875 39.808594 52.5 40.386719 53.207031 40.386719 L 58.347656 40.386719 C 59.058594 40.386719 59.632812 39.808594 59.632812 39.097656 L 59.632812 33.941406 C 59.632812 33.234375 59.058594 32.652344 58.347656 32.652344 Z M 1.796875 35.230469 C 1.335938 35.226562 0.90625 35.46875 0.667969 35.871094 C 0.4375 36.273438 0.4375 36.765625 0.667969 37.171875 C 0.90625 37.574219 1.335938 37.816406 1.796875 37.808594 L 45.496094 37.808594 C 45.957031 37.816406 46.390625 37.574219 46.625 37.171875 C 46.855469 36.765625 46.855469 36.273438 46.625 35.871094 C 46.390625 35.46875 45.957031 35.226562 45.496094 35.230469 Z M 54.492188 35.230469 L 57.0625 35.230469 L 57.0625 37.808594 L 54.492188 37.808594 Z M 53.207031 45.542969 C 52.5 45.542969 51.921875 46.121094 51.921875 46.832031 L 51.921875 51.988281 C 51.921875 52.699219 52.5 53.277344 53.207031 53.277344 L 58.347656 53.277344 C 59.058594 53.277344 59.632812 52.699219 59.632812 51.988281 L 59.632812 46.832031 C 59.632812 46.121094 59.058594 45.542969 58.347656 45.542969 Z M 1.796875 48.121094 C 1.335938 48.117188 0.90625 48.359375 0.667969 48.761719 C 0.4375 49.164062 0.4375 49.65625 0.667969 50.058594 C 0.90625 50.460938 1.335938 50.703125 1.796875 50.699219 L 45.496094 50.699219 C 45.957031 50.703125 46.390625 50.460938 46.625 50.058594 C 46.855469 49.65625 46.855469 49.164062 46.625 48.761719 C 46.390625 48.359375 45.957031 48.117188 45.496094 48.121094 Z M 54.492188 48.121094 L 57.0625 48.121094 L 57.0625 50.699219 L 54.492188 50.699219 Z M 54.492188 48.121094 " fill-opacity="1" fill-rule="nonzero"/></g></svg>